<svg xmlns="http://www.w3.org/2000/svg" width="70" height="70" viewBox="0 0 70 70">
  <g id="Group_90" data-name="Group 90" transform="translate(-1370 -486)">
    <g id="Group_89" data-name="Group 89">
      <g id="Path_40" data-name="Path 40" transform="translate(1370 486)" fill="none">
        <path d="M35,0A35,35,0,0,1,56.761,62.414,34.651,34.651,0,0,1,35,70,35,35,0,0,1,35,0Z" stroke="none"/>
        <path d="M 35 2 C 30.54414367675781 2 26.2226448059082 2.872230529785156 22.15552139282227 4.592475891113281 C 18.22614288330078 6.254467010498047 14.6967887878418 8.634166717529297 11.66547775268555 11.66547775268555 C 8.634166717529297 14.6967887878418 6.254467010498047 18.22614288330078 4.592475891113281 22.15552139282227 C 2.872230529785156 26.2226448059082 2 30.54414367675781 2 35 C 2 39.45585632324219 2.872230529785156 43.7773551940918 4.592475891113281 47.84447860717773 C 6.254467010498047 51.77385711669922 8.634166717529297 55.3032112121582 11.66547775268555 58.33452224731445 C 14.6967887878418 61.3658332824707 18.22614288330078 63.74553298950195 22.15552139282227 65.40752410888672 C 26.2226448059082 67.12776947021484 30.54414367675781 68 35 68 C 42.52986907958984 68 49.81140899658203 65.46409606933594 55.50374603271484 60.85908889770508 C 57.43003463745117 59.30165481567383 59.18360137939453 57.54549026489258 60.71574401855469 55.63936614990234 C 62.25339889526367 53.72635650634766 63.57642364501953 51.65175628662109 64.64803314208984 49.47319030761719 C 66.87223052978516 44.95143127441406 68 40.08194351196289 68 35 C 68 30.54414367675781 67.12776947021484 26.2226448059082 65.40752410888672 22.15552139282227 C 63.74553298950195 18.22614288330078 61.3658332824707 14.6967887878418 58.33452224731445 11.66547775268555 C 55.3032112121582 8.634166717529297 51.77385711669922 6.254467010498047 47.84447860717773 4.592475891113281 C 43.7773551940918 2.872230529785156 39.45585632324219 2 35 2 M 35 0 C 54.3299674987793 0 70 15.6700325012207 70 35 C 70 45.99868011474609 64.92671966552734 55.81242370605469 56.76118850708008 62.41434478759766 C 50.98268890380859 67.08906555175781 43.33129119873047 70 35 70 C 15.6700325012207 70 0 54.3299674987793 0 35 C 0 15.6700325012207 15.6700325012207 0 35 0 Z" stroke="none" fill="#44a798"/>
      </g>
      <g id="bag" transform="translate(1383.303 500)">
        <path id="Path_30" data-name="Path 30" d="M34.259,41.526H14.737A2.732,2.732,0,0,1,12.008,38.8V23.571a12.49,12.49,0,1,1,24.98,0V38.8a2.732,2.732,0,0,1-2.729,2.729ZM24.5,12.081A11.5,11.5,0,0,0,13.008,23.571V38.8a1.732,1.732,0,0,0,1.73,1.73H34.259a1.732,1.732,0,0,0,1.73-1.73V23.571A11.5,11.5,0,0,0,24.5,12.081Z" transform="translate(-3.157 -4.543)" fill="#44a798" stroke="#44a798" stroke-width="1"/>
        <path id="Path_31" data-name="Path 31" d="M36.491,55.977a.5.5,0,0,1-.5-.5V43.007a2.045,2.045,0,0,0-2.046-2.039H22.018a2.045,2.045,0,0,0-2.046,2.039v12.47a.5.5,0,1,1-1,0V43.007a3.045,3.045,0,0,1,3.045-3.038H33.947a3.045,3.045,0,0,1,3.045,3.038v12.47A.5.5,0,0,1,36.491,55.977Z" transform="translate(-6.641 -18.993)" fill="#44a798" stroke="#44a798" stroke-width="1"/>
        <path id="Path_32" data-name="Path 32" d="M36.492,50.762H19.474a.5.5,0,0,1,0-1H36.492a.5.5,0,0,1,0,1Z" transform="translate(-6.642 -23.892)" fill="#44a798" stroke="#44a798" stroke-width="1"/>
        <path id="Path_33" data-name="Path 33" d="M45.854,53.889h-3.48a.5.5,0,0,1-.488-.614l.734-3.127a.5.5,0,0,1,.487-.385H45.12a.5.5,0,0,1,.487.385l.734,3.127a.5.5,0,0,1-.487.614Zm-2.849-1h2.218l-.5-2.127H43.5Z" transform="translate(-18.097 -23.893)" fill="#44a798" stroke="#44a798" stroke-width="1"/>
        <path id="Path_34" data-name="Path 34" d="M36.494,9.251a.5.5,0,0,1-.5-.5V4.266A1.268,1.268,0,0,0,34.727,3H25.915a1.268,1.268,0,0,0-1.267,1.267V8.751a.5.5,0,1,1-1,0V4.266A2.269,2.269,0,0,1,25.915,2h8.812a2.269,2.269,0,0,1,2.266,2.266V8.751A.5.5,0,0,1,36.494,9.251Z" transform="translate(-8.98)" fill="#44a798" stroke="#44a798" stroke-width="1"/>
        <path id="Path_35" data-name="Path 35" d="M36.5,10.46a.5.5,0,0,1-.5-.5V7.478a.078.078,0,0,0-.078-.078H28.891a.078.078,0,0,0-.078.078V9.96a.5.5,0,0,1-1,0V7.478A1.079,1.079,0,0,1,28.891,6.4h7.027A1.079,1.079,0,0,1,37,7.477V9.96A.5.5,0,0,1,36.5,10.46Z" transform="translate(-11.064 -2.201)" fill="#44a798" stroke="#44a798" stroke-width="1"/>
        <path id="Path_36" data-name="Path 36" d="M62.136,55.573H60.492a.5.5,0,0,1-.5-.5V48.14a.5.5,0,0,1,.5-.5h3.153a.5.5,0,0,1,.5.5v5.424a2.011,2.011,0,0,1-2.008,2.009Zm-1.145-1h1.145a1.011,1.011,0,0,0,1.01-1.01V48.64H60.992Z" transform="translate(-27.16 -22.831)" fill="#44a798" stroke="#44a798" stroke-width="1"/>
        <path id="Path_37" data-name="Path 37" d="M9.351,55.573H7.706A2.011,2.011,0,0,1,5.7,53.564V48.14a.5.5,0,0,1,.5-.5H9.351a.5.5,0,0,1,.5.5v6.933A.5.5,0,0,1,9.351,55.573ZM6.7,48.64v4.925a1.011,1.011,0,0,0,1.01,1.01H8.853V48.64Z" transform="translate(0 -22.831)" fill="#44a798" stroke="#44a798" stroke-width="1"/>
        <path id="Path_38" data-name="Path 38" d="M34.824,25.3H29.672a1.859,1.859,0,0,1,0-3.718h5.152a1.859,1.859,0,1,1,0,3.718Zm-5.152-2.719a.86.86,0,0,0,0,1.719h5.152a.86.86,0,1,0,0-1.719Z" transform="translate(-11.063 -9.795)" fill="#44a798" stroke="#44a798" stroke-width="1"/>
      </g>
    </g>
  </g>
</svg>
