<svg xmlns="http://www.w3.org/2000/svg" width="100.482" height="100.482" viewBox="0 0 100.482 100.482">
  <path id="Icon_awesome-line" data-name="Icon awesome-line" d="M61.03,40.873V56.82a.709.709,0,0,1-.718.718H57.755a.742.742,0,0,1-.583-.292L49.86,47.377v9.465a.709.709,0,0,1-.718.718H46.585a.709.709,0,0,1-.718-.718V40.9a.709.709,0,0,1,.718-.718H49.12a.677.677,0,0,1,.583.314l7.312,9.869V40.9a.709.709,0,0,1,.718-.718h2.557a.709.709,0,0,1,.74.7Zm-18.392-.718H40.081a.709.709,0,0,0-.718.718V56.82a.709.709,0,0,0,.718.718h2.557a.709.709,0,0,0,.718-.718V40.873a.723.723,0,0,0-.718-.718ZM36.47,53.523H29.494V40.873a.709.709,0,0,0-.718-.718H26.22a.709.709,0,0,0-.718.718V56.82a.66.66,0,0,0,.2.493.757.757,0,0,0,.493.2h10.25a.709.709,0,0,0,.718-.718V54.241A.718.718,0,0,0,36.47,53.523ZM74.487,40.155H64.237a.723.723,0,0,0-.718.718V56.82a.723.723,0,0,0,.718.718h10.25a.709.709,0,0,0,.718-.718V54.263a.709.709,0,0,0-.718-.718H67.512V50.854h6.975a.709.709,0,0,0,.718-.718V47.557a.709.709,0,0,0-.718-.718H67.512V44.148h6.975a.709.709,0,0,0,.718-.718V40.873a.754.754,0,0,0-.718-.718Zm26-19.581v63.99a18.269,18.269,0,0,1-18.325,18.168H18.168A18.283,18.283,0,0,1,0,84.408V20.418A18.283,18.283,0,0,1,18.325,2.25h63.99C92.363,2.272,100.482,20.575,100.482,20.575Zm-13.816,27.5c0-16.373-16.418-29.7-36.582-29.7S13.5,31.7,13.5,48.073c0,14.669,13.009,26.96,30.593,29.292,4.284.92,3.791,2.49,2.826,8.254-.157.92-.74,3.611,3.162,1.974s21.061-12.4,28.754-21.24C84.132,60.521,86.666,54.622,86.666,48.073Z" transform="translate(0 -2.25)" fill="#2cb70b"/>
</svg>
