<svg xmlns="http://www.w3.org/2000/svg" width="18.969" height="21.679" viewBox="0 0 18.969 21.679">
  <path id="Icon_awesome-book" data-name="Icon awesome-book" d="M18.969,15.243V1.016A1.014,1.014,0,0,0,17.953,0H4.065A4.066,4.066,0,0,0,0,4.065V17.614a4.066,4.066,0,0,0,4.065,4.065H17.953a1.014,1.014,0,0,0,1.016-1.016v-.677a1.024,1.024,0,0,0-.377-.792,9.442,9.442,0,0,1,0-3.163A1.009,1.009,0,0,0,18.969,15.243ZM5.42,5.674a.255.255,0,0,1,.254-.254H14.65a.255.255,0,0,1,.254.254v.847a.255.255,0,0,1-.254.254H5.674a.255.255,0,0,1-.254-.254Zm0,2.71a.255.255,0,0,1,.254-.254H14.65a.255.255,0,0,1,.254.254V9.23a.255.255,0,0,1-.254.254H5.674A.255.255,0,0,1,5.42,9.23ZM16.149,18.969H4.065a1.355,1.355,0,0,1,0-2.71H16.149A15.243,15.243,0,0,0,16.149,18.969Z" fill="#2b5f75"/>
</svg>
