<svg xmlns="http://www.w3.org/2000/svg" width="70" height="70" viewBox="0 0 70 70">
  <g id="Group_95" data-name="Group 95" transform="translate(-2628 -406)">
    <g id="Group_94" data-name="Group 94" transform="translate(1258 -80)">
      <g id="Group_89" data-name="Group 89">
        <g id="Path_40" data-name="Path 40" transform="translate(1370 486)" fill="none">
          <path d="M35,0A35,35,0,0,1,56.761,62.414,34.651,34.651,0,0,1,35,70,35,35,0,0,1,35,0Z" stroke="none"/>
          <path d="M 35 2 C 30.54414367675781 2 26.2226448059082 2.872230529785156 22.15552139282227 4.592475891113281 C 18.22614288330078 6.254467010498047 14.6967887878418 8.634166717529297 11.66547775268555 11.66547775268555 C 8.634166717529297 14.6967887878418 6.254467010498047 18.22614288330078 4.592475891113281 22.15552139282227 C 2.872230529785156 26.2226448059082 2 30.54414367675781 2 35 C 2 39.45585632324219 2.872230529785156 43.7773551940918 4.592475891113281 47.84447860717773 C 6.254467010498047 51.77385711669922 8.634166717529297 55.3032112121582 11.66547775268555 58.33452224731445 C 14.6967887878418 61.3658332824707 18.22614288330078 63.74553298950195 22.15552139282227 65.40752410888672 C 26.2226448059082 67.12776947021484 30.54414367675781 68 35 68 C 42.52986907958984 68 49.81140899658203 65.46409606933594 55.50374603271484 60.85908889770508 C 57.43003463745117 59.30165481567383 59.18360137939453 57.54549026489258 60.71574401855469 55.63936614990234 C 62.25339889526367 53.72635650634766 63.57642364501953 51.65175628662109 64.64803314208984 49.47319030761719 C 66.87223052978516 44.95143127441406 68 40.08194351196289 68 35 C 68 30.54414367675781 67.12776947021484 26.2226448059082 65.40752410888672 22.15552139282227 C 63.74553298950195 18.22614288330078 61.3658332824707 14.6967887878418 58.33452224731445 11.66547775268555 C 55.3032112121582 8.634166717529297 51.77385711669922 6.254467010498047 47.84447860717773 4.592475891113281 C 43.7773551940918 2.872230529785156 39.45585632324219 2 35 2 M 35 0 C 54.3299674987793 0 70 15.6700325012207 70 35 C 70 45.99868011474609 64.92671966552734 55.81242370605469 56.76118850708008 62.41434478759766 C 50.98268890380859 67.08906555175781 43.33129119873047 70 35 70 C 15.6700325012207 70 0 54.3299674987793 0 35 C 0 15.6700325012207 15.6700325012207 0 35 0 Z" stroke="none" fill="#24547b"/>
        </g>
      </g>
    </g>
    <path id="Icon_awesome-bus-alt" data-name="Icon awesome-bus-alt" d="M31.156,8.172h-.511V5.107c0-2.86-6.333-5.107-14.3-5.107s-14.3,2.247-14.3,5.107V8.172H1.532A1.532,1.532,0,0,0,0,9.7v5.107a1.533,1.533,0,0,0,1.532,1.532h.511V26.559A2.043,2.043,0,0,0,4.086,28.6v2.043a2.043,2.043,0,0,0,2.043,2.043H8.172a2.043,2.043,0,0,0,2.043-2.043V28.6H22.473v2.043a2.043,2.043,0,0,0,2.043,2.043h2.043A2.043,2.043,0,0,0,28.6,30.645V28.6h.409a1.611,1.611,0,0,0,1.634-1.634V16.344h.511a1.533,1.533,0,0,0,1.532-1.532V9.7A1.532,1.532,0,0,0,31.156,8.172ZM10.215,4.6a.511.511,0,0,1,.511-.511H21.962a.511.511,0,0,1,.511.511V5.618a.511.511,0,0,1-.511.511H10.726a.511.511,0,0,1-.511-.511ZM7.15,25.537a2.043,2.043,0,1,1,2.043-2.043A2.043,2.043,0,0,1,7.15,25.537Zm8.172-7.15H8.172a2.043,2.043,0,0,1-2.043-2.043V10.215A2.043,2.043,0,0,1,8.172,8.172h7.15Zm2.043,0V8.172h7.15a2.043,2.043,0,0,1,2.043,2.043v6.129a2.043,2.043,0,0,1-2.043,2.043Zm8.172,7.15a2.043,2.043,0,1,1,2.043-2.043A2.043,2.043,0,0,1,25.537,25.537Z" transform="translate(2647 425)" fill="#24547b"/>
  </g>
</svg>
