<svg xmlns="http://www.w3.org/2000/svg" width="47.244" height="40.219" viewBox="0 0 47.244 40.219">
  <path id="calendar" d="M41.705,40.743v-2.69H38.936v2.69H33.357v-2.69H30.587v2.69H25.008v-2.69H22.238v2.69H16.659v-2.69H13.89v2.69H8.311v-2.69H5.541v2.69H0V78.272H47.244V40.743ZM5.541,43.512V46.2H8.311v-2.69H13.89V46.2h2.769v-2.69h5.579V46.2h2.769v-2.69h5.579V46.2h2.769v-2.69h5.579V46.2h2.769v-2.69h2.77v6.413H2.769V43.512Zm6.677,9.182V56.6H8.309v-3.91Zm-3.91,6.679h3.91v3.91H8.309Zm6.679,0H18.9v3.91h-3.91Zm6.679,0h3.91v3.91h-3.91Zm6.679,0h3.91v3.91h-3.91Zm0-2.769v-3.91h3.91V56.6Zm-2.769,0h-3.91v-3.91h3.91Zm-6.679,0h-3.91v-3.91H18.9ZM8.309,66.053h3.91v3.91H8.309Zm6.679,0H18.9v3.91h-3.91Zm6.679,0h3.91v3.91h-3.91Zm6.679,0h3.91v3.91h-3.91Zm6.679,0h3.91v3.91h-3.91Zm3.91-2.769h-3.91v-3.91h3.91v3.91Zm0-6.679h-3.91v-3.91h3.91V56.6ZM2.769,75.5V52.695h2.77V72.733H41.705V52.695h2.77V75.5H2.769Z" transform="translate(0 -38.053)" fill="#3b4f0d"/>
</svg>
