<svg xmlns="http://www.w3.org/2000/svg" width="19.535" height="21.706" viewBox="0 0 19.535 21.706">
  <path id="Icon_material-date-range" data-name="Icon material-date-range" d="M11.012,12.768H8.841v2.171h2.171Zm4.341,0H13.182v2.171h2.171Zm4.341,0H17.523v2.171h2.171Zm2.171-7.6H20.779V3H18.609V5.171H9.926V3H7.756V5.171H6.671a2.161,2.161,0,0,0-2.16,2.171L4.5,22.535a2.17,2.17,0,0,0,2.171,2.171H21.865a2.177,2.177,0,0,0,2.171-2.171V7.341A2.177,2.177,0,0,0,21.865,5.171Zm0,17.365H6.671V10.6H21.865Z" transform="translate(-4.5 -3)" fill="#2b5f75"/>
</svg>
