<svg xmlns="http://www.w3.org/2000/svg" width="70" height="70" viewBox="0 0 70 70">
  <g id="Group_93" data-name="Group 93" transform="translate(-1296 -155)">
    <g id="Group_92" data-name="Group 92" transform="translate(-54 -222)">
      <g id="Path_39" data-name="Path 39" transform="translate(1350 377)" fill="none">
        <path d="M35,0A35,35,0,0,1,56.761,62.414,34.651,34.651,0,0,1,35,70,35,35,0,0,1,35,0Z" stroke="none"/>
        <path d="M 35 2 C 30.54414367675781 2 26.2226448059082 2.872230529785156 22.15552139282227 4.592475891113281 C 18.22614288330078 6.254467010498047 14.6967887878418 8.634166717529297 11.66547775268555 11.66547775268555 C 8.634166717529297 14.6967887878418 6.254467010498047 18.22614288330078 4.592475891113281 22.15552139282227 C 2.872230529785156 26.2226448059082 2 30.54414367675781 2 35 C 2 39.45585632324219 2.872230529785156 43.7773551940918 4.592475891113281 47.84447860717773 C 6.254467010498047 51.77385711669922 8.634166717529297 55.3032112121582 11.66547775268555 58.33452224731445 C 14.6967887878418 61.3658332824707 18.22614288330078 63.74553298950195 22.15552139282227 65.40752410888672 C 26.2226448059082 67.12776947021484 30.54414367675781 68 35 68 C 42.52986907958984 68 49.81140899658203 65.46409606933594 55.50374603271484 60.85908889770508 C 57.43003463745117 59.30165481567383 59.18360137939453 57.54549026489258 60.71574401855469 55.63936614990234 C 62.25339889526367 53.72635650634766 63.57642364501953 51.65175628662109 64.64803314208984 49.47319030761719 C 66.87223052978516 44.95143127441406 68 40.08194351196289 68 35 C 68 30.54414367675781 67.12776947021484 26.2226448059082 65.40752410888672 22.15552139282227 C 63.74553298950195 18.22614288330078 61.3658332824707 14.6967887878418 58.33452224731445 11.66547775268555 C 55.3032112121582 8.634166717529297 51.77385711669922 6.254467010498047 47.84447860717773 4.592475891113281 C 43.7773551940918 2.872230529785156 39.45585632324219 2 35 2 M 35 0 C 54.3299674987793 0 70 15.6700325012207 70 35 C 70 45.99868011474609 64.92671966552734 55.81242370605469 56.76118850708008 62.41434478759766 C 50.98268890380859 67.08906555175781 43.33129119873047 70 35 70 C 15.6700325012207 70 0 54.3299674987793 0 35 C 0 15.6700325012207 15.6700325012207 0 35 0 Z" stroke="none" fill="#44a798"/>
      </g>
    </g>
    <g id="social-care" transform="translate(1314 158.032)">
      <path id="Path_41" data-name="Path 41" d="M203.793,19.9a3.9,3.9,0,1,0-3.9,3.9A3.9,3.9,0,0,0,203.793,19.9Zm-3.9,2.6a2.6,2.6,0,1,1,2.6-2.6A2.6,2.6,0,0,1,199.9,22.494Z" transform="translate(-183.271 0)" fill="#44a798" stroke="#44a798" stroke-width="1"/>
      <path id="Path_42" data-name="Path 42" d="M177.69,144.443v-2.6a5.845,5.845,0,0,0-11.69,0v2.6a.649.649,0,0,0,.649.649H177.04A.649.649,0,0,0,177.69,144.443Zm-1.3-.649H167.3v-1.948a4.546,4.546,0,0,1,9.092,0Z" transform="translate(-155.219 -112.207)" fill="#44a798" stroke="#44a798" stroke-width="1"/>
      <path id="Path_43" data-name="Path 43" d="M4.667,134.971l3.127,1.563v3.5a.649.649,0,0,0,.649.649h6.884a.649.649,0,0,0,.649-.649v-8.262a4.037,4.037,0,0,0-3.467-4.054c-.052-.01-2.51-.193-3.7-1.381l-1.778-1.778a2.58,2.58,0,0,0-1.837-.761v-5.2a2.6,2.6,0,0,0-5.2,0v8.822a8.443,8.443,0,0,0,4.667,7.551ZM1.3,118.6a1.3,1.3,0,0,1,2.6,0v5.544a2.6,2.6,0,0,0-.538,4.086l3.326,3.326a.649.649,0,0,0,.918-.918l-3.326-3.326a1.3,1.3,0,0,1,.485-2.143h0a1.3,1.3,0,0,1,1.351.307l1.778,1.778A7.568,7.568,0,0,0,12.363,129h.007a2.726,2.726,0,0,1,2.307,2.762v7.613H9.092v-3.247a.649.649,0,0,0-.359-.581l-3.485-1.742A7.105,7.105,0,0,1,1.3,127.42Z" transform="translate(0 -93.506)" fill="#44a798" stroke="#44a798" stroke-width="1"/>
      <circle id="Ellipse_20" data-name="Ellipse 20" cx="0.5" cy="0.5" r="0.5" transform="translate(29 38.967)" fill="#44a798" stroke="#44a798" stroke-width="1"/>
      <path id="Path_44" data-name="Path 44" d="M279.378,116a2.6,2.6,0,0,0-2.6,2.6v5.2a2.58,2.58,0,0,0-1.837.761l-1.778,1.778c-1.037,1.036-2.718,1.208-3.7,1.381A4.037,4.037,0,0,0,266,131.767v8.262a.649.649,0,0,0,.649.649h6.884a.649.649,0,0,0,.649-.649v-3.5l2.126-1.063a.649.649,0,0,0-.581-1.162l-2.485,1.242a.65.65,0,0,0-.359.581v3.247H267.3v-7.613A2.726,2.726,0,0,1,269.606,129h.007a7.535,7.535,0,0,0,4.471-1.753l1.778-1.778a1.3,1.3,0,0,1,1.351-.307h0a1.3,1.3,0,0,1,.485,2.143l-3.326,3.326a.649.649,0,1,0,.918.918l3.326-3.326a2.6,2.6,0,0,0-.538-4.086V118.6a1.3,1.3,0,0,1,2.6,0v8.822a7.163,7.163,0,0,1-.867,3.411.649.649,0,1,0,1.141.62,8.465,8.465,0,0,0,1.025-4.032V118.6A2.6,2.6,0,0,0,279.378,116Z" transform="translate(-248.725 -93.506)" fill="#44a798" stroke="#44a798" stroke-width="1"/>
    </g>
  </g>
</svg>
