<svg xmlns="http://www.w3.org/2000/svg" width="29.034" height="30.736" viewBox="0 0 29.034 30.736">
  <path id="Icon_awesome-instagram" data-name="Icon awesome-instagram" d="M14.515,9.725a7.658,7.658,0,0,0-7.442,7.88,7.658,7.658,0,0,0,7.442,7.88,7.659,7.659,0,0,0,7.442-7.88A7.659,7.659,0,0,0,14.515,9.725Zm0,13a5,5,0,0,1-4.838-5.123,4.992,4.992,0,0,1,4.838-5.123,4.992,4.992,0,0,1,4.838,5.123A5,5,0,0,1,14.515,22.729ZM24,9.4a1.739,1.739,0,1,1-3.472,0A1.739,1.739,0,1,1,24,9.4Zm4.929,1.865a9.4,9.4,0,0,0-2.345-6.44A8.386,8.386,0,0,0,20.5,2.346c-2.4-.144-9.58-.144-11.976,0A8.373,8.373,0,0,0,2.441,4.822,9.431,9.431,0,0,0,.1,11.262C-.039,13.8-.039,21.405.1,23.943a9.4,9.4,0,0,0,2.345,6.44,8.4,8.4,0,0,0,6.082,2.483c2.4.144,9.58.144,11.976,0a8.331,8.331,0,0,0,6.082-2.483,9.463,9.463,0,0,0,2.345-6.44c.136-2.538.136-10.137,0-12.674Zm-3.1,15.4a5.052,5.052,0,0,1-2.759,2.922c-1.911.8-6.445.617-8.556.617s-6.652.178-8.556-.617A5.051,5.051,0,0,1,3.2,26.666c-.758-2.023-.583-6.824-.583-9.06s-.168-7.044.583-9.06A5.052,5.052,0,0,1,5.959,5.624c1.911-.8,6.445-.617,8.556-.617s6.652-.178,8.556.617A5.051,5.051,0,0,1,25.83,8.546c.758,2.023.583,6.824.583,9.06S26.588,24.649,25.83,26.666Z" transform="translate(0.005 -2.238)" fill="#d548ff"/>
</svg>
