<svg xmlns="http://www.w3.org/2000/svg" width="29.747" height="29.747" viewBox="0 0 29.747 29.747">
  <path id="Icon_awesome-line" data-name="Icon awesome-line" d="M18.067,13.684V18.4a.21.21,0,0,1-.212.212H17.1a.22.22,0,0,1-.173-.086L14.76,15.609v2.8a.21.21,0,0,1-.212.212h-.757a.21.21,0,0,1-.212-.212V13.69a.21.21,0,0,1,.212-.212h.75a.2.2,0,0,1,.173.093l2.165,2.922v-2.8a.21.21,0,0,1,.212-.212h.757a.21.21,0,0,1,.219.206Zm-5.445-.212h-.757a.21.21,0,0,0-.212.212V18.4a.21.21,0,0,0,.212.212h.757a.21.21,0,0,0,.212-.212V13.684a.214.214,0,0,0-.212-.212ZM10.8,17.429H8.731V13.684a.21.21,0,0,0-.212-.212H7.762a.21.21,0,0,0-.212.212V18.4a.2.2,0,0,0,.06.146.224.224,0,0,0,.146.06H10.79A.21.21,0,0,0,11,18.4v-.757A.213.213,0,0,0,10.8,17.429Zm11.255-3.957H19.017a.214.214,0,0,0-.212.212V18.4a.214.214,0,0,0,.212.212h3.034a.21.21,0,0,0,.212-.212v-.757a.21.21,0,0,0-.212-.212H19.986v-.8h2.065a.21.21,0,0,0,.212-.212v-.764a.21.21,0,0,0-.212-.212H19.986v-.8h2.065a.21.21,0,0,0,.212-.212v-.757a.223.223,0,0,0-.212-.212Zm7.7-5.8V26.618A5.408,5.408,0,0,1,24.322,32H5.378A5.413,5.413,0,0,1,0,26.572V7.628A5.413,5.413,0,0,1,5.425,2.25H24.368C27.343,2.257,29.747,7.675,29.747,7.675Zm-4.09,8.14c0-4.847-4.86-8.791-10.83-8.791S4,10.968,4,15.815c0,4.342,3.851,7.981,9.057,8.672,1.268.272,1.122.737.837,2.443-.046.272-.219,1.069.936.584a35,35,0,0,0,8.512-6.288A7.845,7.845,0,0,0,25.656,15.815Z" transform="translate(0 -2.25)" fill="#68e64a"/>
</svg>
