<svg xmlns="http://www.w3.org/2000/svg" width="43.138" height="40" viewBox="0 0 43.138 40">
  <path id="Icon_awesome-map-marked-alt" data-name="Icon awesome-map-marked-alt" d="M21.569,0a9.646,9.646,0,0,0-9.436,9.844c0,4.4,6.167,12.406,8.53,15.314a1.15,1.15,0,0,0,1.812,0c2.363-2.908,8.53-10.919,8.53-15.314A9.646,9.646,0,0,0,21.569,0Zm0,13.125a3.215,3.215,0,0,1-3.145-3.281,3.148,3.148,0,1,1,6.291,0A3.215,3.215,0,0,1,21.569,13.125ZM1.507,16.871A2.5,2.5,0,0,0,0,19.192V38.748a1.2,1.2,0,0,0,1.643,1.161L11.983,35V16.791a24.162,24.162,0,0,1-1.591-3.627ZM21.569,28.1a3.52,3.52,0,0,1-2.734-1.325C17.362,24.962,15.8,22.9,14.379,20.78V35l14.379,5V20.781c-1.417,2.116-2.982,4.181-4.455,5.994A3.522,3.522,0,0,1,21.569,28.1ZM41.495,12.591,31.155,17.5V40l10.476-4.371a2.5,2.5,0,0,0,1.507-2.321V13.752A1.2,1.2,0,0,0,41.495,12.591Z" fill="#3b4f0d"/>
</svg>
