<svg xmlns="http://www.w3.org/2000/svg" width="168.86" height="53.797" viewBox="0 0 168.86 53.797">
  <g id="Group_86" data-name="Group 86" transform="translate(-3040.985 -213)">
    <g id="Group_84" data-name="Group 84" transform="translate(3095.845 230.265)">
      <text id="解鎖拉丁美洲" transform="translate(0 16)" fill="#218e20" font-size="19" font-family="LiGothicMed, Apple LiGothic"><tspan x="0" y="0">解鎖拉丁美洲</tspan></text>
    </g>
    <path id="Path_23" data-name="Path 23" d="M593.345,299.038c0-1.837-.021-3.486.006-5.135a3.083,3.083,0,0,1,2.973-3.329,4.379,4.379,0,0,1,2.336.613q13.677,7.838,27.307,15.758c1.187.686,2.382,1.358,3.561,2.057,2.586,1.533,2.612,4.414.049,5.954-1.368.822-2.758,1.608-4.276,2.49,1.543.9,2.993,1.722,4.417,2.587a3.174,3.174,0,0,1,1.244,4.431,4.155,4.155,0,0,1-1.459,1.389q-15.488,8.986-31.011,17.911c-2.6,1.495-5.094.076-5.2-2.92-.044-1.256-.007-2.515-.014-3.772,0-.306-.029-.612-.053-1.1-1.353.779-2.55,1.537-3.81,2.169a6.556,6.556,0,0,1-2.383.774,2.994,2.994,0,0,1-3.094-2.617,10.046,10.046,0,0,1-.116-1.535q-.009-17.277,0-34.556a7.17,7.17,0,0,1,.211-1.946,3.189,3.189,0,0,1,4.643-1.844c1.273.642,2.484,1.406,3.725,2.113C592.649,298.668,592.9,298.8,593.345,299.038Zm3.255,31.285,22.252-12.835L596.6,304.634Zm.158-36.554c-.114.161-.171.2-.171.247a45.716,45.716,0,0,1-.068,4.62c-.191,1.709.271,2.857,1.98,3.369a1.872,1.872,0,0,1,.371.211q11.3,6.532,22.6,13.074a.994.994,0,0,0,1.159.027c1.637-.986,3.3-1.931,4.949-2.9.2-.119.39-.271.685-.48Zm-.277,47.453,31.64-18.231c-.073-.138-.087-.211-.128-.235-1.871-1.094-3.737-2.2-5.63-3.254a1.047,1.047,0,0,0-.832.13c-7.7,4.429-15.353,8.925-23.094,13.273-1.531.86-2.186,1.763-1.992,3.51A45.073,45.073,0,0,1,596.482,341.222Zm-9.338-5.422c2.027-1.186,3.949-2.291,5.839-3.445.193-.118.285-.535.286-.814q.052-14.016.085-28.033a1.076,1.076,0,0,0-.628-1.083c-1.027-.559-2.031-1.163-3.044-1.749l-2.537-1.469Z" transform="translate(2457.167 -77.566)" fill="#218e20"/>
  </g>
</svg>
