<svg xmlns="http://www.w3.org/2000/svg" width="59.248" height="40.032" viewBox="0 0 59.248 40.032">
  <path id="mountain" d="M58.38,157.992H57.017L44.239,130.873a2.446,2.446,0,0,0-3.553-1.317l-1.614,1.028-7.379-9.4a2.44,2.44,0,0,0-2.066-1.011,2.59,2.59,0,0,0-1.973,1.276L17.385,137.547l-.017-.009a2.38,2.38,0,0,0-3.222,1.059L2.3,157.992H.868a1.138,1.138,0,0,0,0,2.21H58.38a1.138,1.138,0,0,0,0-2.21ZM29,122.846a.927.927,0,0,1,.715-.463.874.874,0,0,1,.749.366l7.458,9.5-.411,1.792a1.174,1.174,0,0,0,.589,1.371.7.7,0,0,0,.244.045.925.925,0,0,0,.833-.8l.45-1.958,1.835-1.169a.887.887,0,0,1,1.288.478l12.242,25.982H49.429L36.983,144.211l1.128-4.913a1.174,1.174,0,0,0-.589-1.371c-.46-.171-.942.165-1.077.751l-.9,3.937-6.012-6.657a2.289,2.289,0,0,0-3.53-.047L22.056,140.1l-3.013-1.644Zm.249,35.147-5.977-16.31,3.839-4.074a.83.83,0,0,1,1.28.017l18.392,20.367Zm-13.733-18.04a.863.863,0,0,1,1.168-.384l4.873,2.659,5.777,15.764H11.619L15.541,149a1.277,1.277,0,0,0-.337-1.5.78.78,0,0,0-1.18.429l-4.39,10.063H4.5Z" transform="translate(0 -120.171)" fill="#3b4f0d"/>
</svg>
