<svg xmlns="http://www.w3.org/2000/svg" width="52.535" height="40" viewBox="0 0 52.535 40">
  <path id="people" d="M41.1,99.176H11.439a1.7,1.7,0,0,1-1.695-1.695V92.464a6.073,6.073,0,0,1,3.593-5.539c6.348-2.834,6-2.739,6.494-2.739h2.014a1.7,1.7,0,0,1,1.646,1.29,2.862,2.862,0,0,0,5.553,0,1.7,1.7,0,0,1,1.646-1.29c2.168,0,2.279-.043,2.705.147l5.8,2.591a6.073,6.073,0,0,1,3.593,5.539v5.017A1.7,1.7,0,0,1,41.1,99.176Zm-14.787-40A10.352,10.352,0,1,0,36.661,69.528,10.363,10.363,0,0,0,26.309,59.176ZM9.979,70.248A6.518,6.518,0,1,0,16.5,76.766,6.525,6.525,0,0,0,9.979,70.248Zm32.577,0a6.518,6.518,0,1,0,6.518,6.518A6.525,6.525,0,0,0,42.556,70.248Zm7.533,15.525c-3.526-1.575-3.442-1.591-3.924-1.591-2.524,0-4.176-.018-5.293-.023a1.059,1.059,0,0,0-.494,2,6.088,6.088,0,0,1,1.875,1.415,7.33,7.33,0,0,1,1.853,5.4,1.058,1.058,0,0,0,1.059,1.058h5.676a1.7,1.7,0,0,0,1.695-1.695v-2.8a4.136,4.136,0,0,0-2.447-3.772ZM6.371,84.183c-.48,0-.386.011-3.924,1.591A4.136,4.136,0,0,0,0,89.545v2.8a1.7,1.7,0,0,0,1.695,1.695H7.371a1.058,1.058,0,0,0,1.059-1.059,7.3,7.3,0,0,1,1.853-5.4,6.1,6.1,0,0,1,1.859-1.407,1.059,1.059,0,0,0-.49-2c-1.124,0-2.775.016-5.28.016Z" transform="translate(0 -59.176)" fill="#3b4f0d"/>
</svg>
