<svg xmlns="http://www.w3.org/2000/svg" width="159.34" height="159.341" viewBox="0 0 159.34 159.341">
  <path id="Icon_metro-qrcode" data-name="Icon metro-qrcode" d="M52.365,11.887H12.529V51.722H52.365Zm9.959-9.959V61.681H2.571V1.928ZM22.488,21.846H42.406V41.763H22.488Zm129.464-9.959H112.117V51.722h39.835V11.887Zm9.959-9.959V61.681H102.159V1.928h59.753ZM122.076,21.846h19.918V41.763H122.076ZM52.365,111.475H12.529V151.31H52.365Zm9.959-9.959v59.753H2.571V101.516ZM22.488,121.433H42.406v19.918H22.488ZM72.282,1.928h9.959v9.959H72.282Zm9.959,9.959H92.2v9.959H82.241Zm-9.959,9.959h9.959V31.8H72.282ZM82.241,31.8H92.2v9.959H82.241Zm-9.959,9.959h9.959v9.959H72.282Zm9.959,9.959H92.2v9.959H82.241Zm-9.959,9.959h9.959v9.959H72.282Zm0,19.918h9.959v9.959H72.282Zm9.959,9.959H92.2v9.959H82.241Zm-9.959,9.959h9.959v9.959H72.282Zm9.959,9.959H92.2v9.959H82.241Zm-9.959,9.959h9.959v9.959H72.282Zm9.959,9.959H92.2v9.959H82.241Zm-9.959,9.959h9.959v9.959H72.282Zm9.959,9.959H92.2v9.959H82.241ZM151.952,81.6h9.959v9.959h-9.959ZM12.53,81.6h9.959v9.959H12.53Zm9.959-9.959h9.959V81.6H22.488Zm-19.918,0H12.53V81.6H2.571Zm39.835,0h9.959V81.6H42.406ZM52.365,81.6h9.959v9.959H52.365Zm9.959-9.959h9.959V81.6H62.323ZM92.2,81.6h9.959v9.959H92.2Zm9.959-9.959h9.959V81.6h-9.959Zm9.959,9.959h9.959v9.959h-9.959Zm9.959-9.959h9.959V81.6h-9.959Zm9.959,9.959h9.959v9.959h-9.959Zm9.959-9.959h9.959V81.6h-9.959Zm9.959,29.876h9.959v9.959h-9.959Zm-59.753,0h9.959v9.959H92.2Zm9.959-9.959h9.959v9.959h-9.959Zm9.959,9.959h9.959v9.959h-9.959Zm19.918,0h9.959v9.959h-9.959Zm9.959-9.959h9.959v9.959h-9.959Zm9.959,29.876h9.959v9.959h-9.959Zm-59.753,0h9.959v9.959H92.2Zm9.959-9.959h9.959v9.959h-9.959Zm19.918,0h9.959v9.959h-9.959Zm9.959,9.959h9.959v9.959h-9.959Zm9.959-9.959h9.959v9.959h-9.959Zm9.959,29.876h9.959v9.959h-9.959Zm-49.794-9.959h9.959v9.959h-9.959Zm9.959,9.959h9.959v9.959h-9.959Zm9.959-9.959h9.959v9.959h-9.959Zm9.959,9.959h9.959v9.959h-9.959Zm-29.876,9.959h9.959v9.959h-9.959Zm19.918,0h9.959v9.959h-9.959Zm19.918,0h9.959v9.959h-9.959Z" transform="translate(-2.571 -1.928)"/>
</svg>
