<svg xmlns="http://www.w3.org/2000/svg" width="70" height="70" viewBox="0 0 70 70">
  <g id="Group_91" data-name="Group 91" transform="translate(-1350 -377)">
    <g id="shield" transform="translate(1328 393)">
      <path id="Path_27" data-name="Path 27" d="M71.9,5.957a4.846,4.846,0,0,1-4.84-4.84A1.117,1.117,0,0,0,65.946,0H48.074a1.117,1.117,0,0,0-1.117,1.117,4.846,4.846,0,0,1-4.84,4.84A1.117,1.117,0,0,0,41,7.074V17.089A21.887,21.887,0,0,0,56.694,38.081a1.117,1.117,0,0,0,.632,0A21.887,21.887,0,0,0,73.021,17.089V7.074A1.117,1.117,0,0,0,71.9,5.957ZM70.787,17.089A19.769,19.769,0,0,1,57.01,35.842,19.769,19.769,0,0,1,43.234,17.089V8.1A7.092,7.092,0,0,0,49.1,2.234H64.917A7.092,7.092,0,0,0,70.787,8.1v8.985Z" fill="#44a798"/>
      <path id="Path_28" data-name="Path 28" d="M119.024,60.637A1.117,1.117,0,0,0,118.016,60H107.067a1.117,1.117,0,0,0-1.008.637,9.381,9.381,0,0,1-4.422,4.423A1.117,1.117,0,0,0,101,66.068v6.553a17.547,17.547,0,0,0,11.138,16.247,1.117,1.117,0,0,0,.808,0,17.546,17.546,0,0,0,11.138-16.247V66.068a1.117,1.117,0,0,0-.637-1.008A9.383,9.383,0,0,1,119.024,60.637Zm2.825,11.984a15.3,15.3,0,0,1-9.308,14,15.3,15.3,0,0,1-9.308-14V66.748a11.634,11.634,0,0,0,4.514-4.514h9.588a11.635,11.635,0,0,0,4.514,4.514Z" transform="translate(-55.531 -55.532)" fill="#44a798"/>
      <path id="Path_29" data-name="Path 29" d="M166.941,136.018l-1.676-3.4a1.117,1.117,0,0,0-2,0l-1.676,3.4-3.747.544a1.117,1.117,0,0,0-.619,1.905l2.711,2.643-.64,3.732a1.117,1.117,0,0,0,1.621,1.178l3.352-1.762,3.352,1.762a1.117,1.117,0,0,0,1.621-1.178l-.64-3.732,2.711-2.643a1.117,1.117,0,0,0-.619-1.905Zm-.325,3.9a1.117,1.117,0,0,0-.321.989l.357,2.08-1.868-.982a1.117,1.117,0,0,0-1.04,0l-1.868.982.357-2.08a1.117,1.117,0,0,0-.321-.989l-1.511-1.473,2.089-.3a1.117,1.117,0,0,0,.841-.611l.934-1.892.934,1.893a1.117,1.117,0,0,0,.841.611l2.089.3Z" transform="translate(-107.253 -122.17)" fill="#44a798"/>
    </g>
    <g id="Path_39" data-name="Path 39" transform="translate(1350 377)" fill="none">
      <path d="M35,0A35,35,0,0,1,56.761,62.414,34.651,34.651,0,0,1,35,70,35,35,0,0,1,35,0Z" stroke="none"/>
      <path d="M 35 2 C 30.54414367675781 2 26.2226448059082 2.872230529785156 22.15552139282227 4.592475891113281 C 18.22614288330078 6.254467010498047 14.6967887878418 8.634166717529297 11.66547775268555 11.66547775268555 C 8.634166717529297 14.6967887878418 6.254467010498047 18.22614288330078 4.592475891113281 22.15552139282227 C 2.872230529785156 26.2226448059082 2 30.54414367675781 2 35 C 2 39.45585632324219 2.872230529785156 43.7773551940918 4.592475891113281 47.84447860717773 C 6.254467010498047 51.77385711669922 8.634166717529297 55.3032112121582 11.66547775268555 58.33452224731445 C 14.6967887878418 61.3658332824707 18.22614288330078 63.74553298950195 22.15552139282227 65.40752410888672 C 26.2226448059082 67.12776947021484 30.54414367675781 68 35 68 C 42.52986907958984 68 49.81140899658203 65.46409606933594 55.50374603271484 60.85908889770508 C 57.43003463745117 59.30165481567383 59.18360137939453 57.54549026489258 60.71574401855469 55.63936614990234 C 62.25339889526367 53.72635650634766 63.57642364501953 51.65175628662109 64.64803314208984 49.47319030761719 C 66.87223052978516 44.95143127441406 68 40.08194351196289 68 35 C 68 30.54414367675781 67.12776947021484 26.2226448059082 65.40752410888672 22.15552139282227 C 63.74553298950195 18.22614288330078 61.3658332824707 14.6967887878418 58.33452224731445 11.66547775268555 C 55.3032112121582 8.634166717529297 51.77385711669922 6.254467010498047 47.84447860717773 4.592475891113281 C 43.7773551940918 2.872230529785156 39.45585632324219 2 35 2 M 35 0 C 54.3299674987793 0 70 15.6700325012207 70 35 C 70 45.99868011474609 64.92671966552734 55.81242370605469 56.76118850708008 62.41434478759766 C 50.98268890380859 67.08906555175781 43.33129119873047 70 35 70 C 15.6700325012207 70 0 54.3299674987793 0 35 C 0 15.6700325012207 15.6700325012207 0 35 0 Z" stroke="none" fill="#44a798"/>
    </g>
  </g>
</svg>
