<svg xmlns="http://www.w3.org/2000/svg" width="113.724" height="23.435" viewBox="0 0 113.724 23.435">
  <g id="Group_88" data-name="Group 88" transform="translate(-2901.5 -740)">
    <path id="Polygon_1" data-name="Polygon 1" d="M11.269,1.665a1,1,0,0,1,1.767,0l2.839,5.351a1,1,0,0,0,.7.515L22.5,8.619a1,1,0,0,1,.547,1.67L18.87,14.713a1,1,0,0,0-.264.819l.81,6.053a1,1,0,0,1-1.43,1.031l-5.394-2.635a1,1,0,0,0-.878,0L6.319,22.616a1,1,0,0,1-1.43-1.031l.81-6.053a1,1,0,0,0-.264-.819L1.261,10.289a1,1,0,0,1,.547-1.67L7.727,7.531a1,1,0,0,0,.7-.515Z" transform="translate(2901.5 740)" fill="#ffe117"/>
    <path id="Polygon_2" data-name="Polygon 2" d="M11.269,1.665a1,1,0,0,1,1.767,0l2.839,5.351a1,1,0,0,0,.7.515L22.5,8.619a1,1,0,0,1,.547,1.67L18.87,14.713a1,1,0,0,0-.264.819l.81,6.053a1,1,0,0,1-1.43,1.031l-5.394-2.635a1,1,0,0,0-.878,0L6.319,22.616a1,1,0,0,1-1.43-1.031l.81-6.053a1,1,0,0,0-.264-.819L1.261,10.289a1,1,0,0,1,.547-1.67L7.727,7.531a1,1,0,0,0,.7-.515Z" transform="translate(2923.855 740)" fill="#ffe117"/>
    <path id="Polygon_3" data-name="Polygon 3" d="M11.269,1.665a1,1,0,0,1,1.767,0l2.839,5.351a1,1,0,0,0,.7.515L22.5,8.619a1,1,0,0,1,.547,1.67L18.87,14.713a1,1,0,0,0-.264.819l.81,6.053a1,1,0,0,1-1.43,1.031l-5.394-2.635a1,1,0,0,0-.878,0L6.319,22.616a1,1,0,0,1-1.43-1.031l.81-6.053a1,1,0,0,0-.264-.819L1.261,10.289a1,1,0,0,1,.547-1.67L7.727,7.531a1,1,0,0,0,.7-.515Z" transform="translate(2946.21 740)" fill="#ffe117"/>
    <path id="Polygon_4" data-name="Polygon 4" d="M11.269,1.665a1,1,0,0,1,1.767,0l2.839,5.351a1,1,0,0,0,.7.515L22.5,8.619a1,1,0,0,1,.547,1.67L18.87,14.713a1,1,0,0,0-.264.819l.81,6.053a1,1,0,0,1-1.43,1.031l-5.394-2.635a1,1,0,0,0-.878,0L6.319,22.616a1,1,0,0,1-1.43-1.031l.81-6.053a1,1,0,0,0-.264-.819L1.261,10.289a1,1,0,0,1,.547-1.67L7.727,7.531a1,1,0,0,0,.7-.515Z" transform="translate(2968.564 740)" fill="#ffe117"/>
    <path id="Polygon_5" data-name="Polygon 5" d="M11.269,1.665a1,1,0,0,1,1.767,0l2.839,5.351a1,1,0,0,0,.7.515L22.5,8.619a1,1,0,0,1,.547,1.67L18.87,14.713a1,1,0,0,0-.264.819l.81,6.053a1,1,0,0,1-1.43,1.031l-5.394-2.635a1,1,0,0,0-.878,0L6.319,22.616a1,1,0,0,1-1.43-1.031l.81-6.053a1,1,0,0,0-.264-.819L1.261,10.289a1,1,0,0,1,.547-1.67L7.727,7.531a1,1,0,0,0,.7-.515Z" transform="translate(2990.919 740)" fill="#ffe117"/>
  </g>
</svg>
